<svg width="55" height="55" viewBox="0 0 55 55" fill="none" xmlns="http://www.w3.org/2000/svg">
<path d="M10.144 46.7517L6.28369 3.4375H48.7162L44.8507 46.7448L27.4742 51.5625L10.144 46.7517Z" fill="#1572B6"/>
<path d="M27.5 47.881L41.5422 43.988L44.8456 6.97986H27.5V47.881Z" fill="#33A9DC"/>
<path d="M27.5 22.672H34.5297L35.0144 17.2322H27.5V11.9195H27.5189H40.8203L40.6931 13.3444L39.3886 27.9847H27.5V22.672Z" fill="white"/>
<path d="M27.5326 36.4684L27.5086 36.4753L21.5926 34.8769L21.2145 30.6402H18.339H15.8812L16.6254 38.9813L27.5068 42.0028L27.5326 41.9959V36.4684Z" fill="#EBEBEB"/>
<path d="M34.0777 27.7595L33.4383 34.8734L27.5138 36.4719V41.9994L38.4038 38.9812L38.4846 38.0841L39.4075 27.7595H34.0777Z" fill="white"/>
<path d="M27.5189 11.9195V15.2195V17.2184V17.2322H14.7039H14.6867L14.5801 16.0377L14.3378 13.3444L14.2106 11.9195H27.5189Z" fill="#EBEBEB"/>
<path d="M27.5 22.672V25.972V27.9709V27.9847H21.6752H21.658L21.5514 26.7902L21.3108 24.0969L21.1836 22.672H27.5Z" fill="#EBEBEB"/>
</svg>
