<svg width="55" height="55" viewBox="0 0 55 55" fill="none" xmlns="http://www.w3.org/2000/svg">
<g clip-path="url(#clip0_3_79)">
<path d="M17 9L21.9 4.10001L48.4 29.7L25.3 48.95L17 9Z" fill="white"/>
<path d="M53.9638 24.7047L29.9549 1.02287C28.5732 -0.340957 26.3307 -0.340957 24.9468 1.02287L19.9623 5.94107L26.2863 12.1793C27.7564 11.6899 29.4413 12.0181 30.6127 13.1736C31.7901 14.3363 32.1207 16.0125 31.6115 17.4674L37.7064 23.4805C39.1809 22.979 40.8828 23.303 42.0597 24.4666C43.7063 26.0896 43.7063 28.7205 42.0597 30.3443C40.4132 31.9685 37.7469 31.9685 36.0994 30.3443C34.8615 29.1223 34.5553 27.3283 35.1825 25.8236L29.4988 20.2166L29.498 34.9725C29.8996 35.168 30.2781 35.4292 30.6127 35.7579C32.2588 37.3809 32.2588 40.011 30.6127 41.6374C28.9665 43.2603 26.2985 43.2603 24.6541 41.6374C23.0084 40.0114 22.8734 37.3813 24.5186 35.7579C24.9255 35.3571 25.3267 35.0541 25.7623 34.8513V19.9588C25.3267 19.756 24.9259 19.4552 24.5182 19.0517C23.272 17.8228 23.0389 16.0181 23.6784 14.5073L17.5 8.5L1.03292 24.5951C-0.350102 25.9602 -0.34139 28.1722 1.04163 29.5365L25.0544 53.2183C26.4366 54.5821 28.6808 54.5821 30.0651 53.2183L53.962 29.6465C55.345 28.2818 55.3464 26.0685 53.9638 24.7047Z" fill="#F34F29"/>
</g>
<defs>
<clipPath id="clip0_3_79">
<rect width="55" height="55" fill="white"/>
</clipPath>
</defs>
</svg>
