<svg width="55" height="55" viewBox="0 0 55 55" fill="none" xmlns="http://www.w3.org/2000/svg">
<path d="M27.5 51.5625C26.8508 51.5628 26.213 51.392 25.6507 51.0675L19.7657 47.5836C18.8874 47.092 19.3153 46.9184 19.6058 46.817C20.5399 46.5285 21.4343 46.1243 22.2682 45.6139C22.338 45.5816 22.4148 45.5677 22.4915 45.5734C22.5682 45.5791 22.6422 45.6043 22.7064 45.6466L27.2285 48.333C27.3127 48.3775 27.4065 48.4008 27.5018 48.4008C27.597 48.4008 27.6908 48.3775 27.775 48.333L45.4094 38.1545C45.4919 38.1051 45.5602 38.0351 45.6075 37.9513C45.6548 37.8675 45.6795 37.7729 45.6793 37.6767V17.3164C45.6793 17.2187 45.6542 17.1226 45.6063 17.0374C45.5585 16.9522 45.4895 16.8808 45.406 16.83L27.7716 6.66016C27.6884 6.61333 27.5946 6.58872 27.4992 6.58872C27.4037 6.58872 27.3099 6.61333 27.2268 6.66016L9.60269 16.8334C9.51863 16.8832 9.44882 16.9537 9.40004 17.0384C9.35126 17.123 9.32516 17.2187 9.32426 17.3164V37.6681C9.3245 37.7641 9.35025 37.8583 9.39887 37.9411C9.4475 38.0238 9.51725 38.0921 9.60097 38.1391L14.4375 40.9303C17.0586 42.24 18.6639 40.6966 18.6639 39.1463V19.0523C18.6639 18.9156 18.7183 18.7844 18.815 18.6877C18.9117 18.591 19.0428 18.5367 19.1796 18.5367H21.4139C21.5507 18.5367 21.6818 18.591 21.7785 18.6877C21.8752 18.7844 21.9296 18.9156 21.9296 19.0523V39.148C21.9296 42.6456 20.0252 44.648 16.708 44.648C15.2769 44.6729 13.8683 44.2902 12.6466 43.5445L8.01113 40.8856C7.44839 40.5579 6.98146 40.0883 6.65694 39.5238C6.33242 38.9592 6.16168 38.3193 6.16176 37.6681V17.3164C6.16008 16.6642 6.3301 16.023 6.65473 15.4573C6.97936 14.8917 7.44717 14.4214 8.01113 14.0938L25.6472 3.91188C26.2153 3.60107 26.8525 3.43817 27.5 3.43817C28.1476 3.43817 28.7848 3.60107 29.3528 3.91188L46.9872 14.0938C47.5499 14.4208 48.0169 14.8897 48.3418 15.4537C48.6666 16.0177 48.8378 16.657 48.8383 17.3078V37.6681C48.8374 38.3193 48.666 38.9589 48.3413 39.5234C48.0165 40.0878 47.5497 40.5575 46.9872 40.8856L29.3528 51.0675C28.7895 51.3925 28.1504 51.5633 27.5 51.5625Z" fill="#83CD29"/>
<path d="M24.1553 30.8567C24.1553 30.72 24.2096 30.5888 24.3063 30.4921C24.403 30.3954 24.5341 30.3411 24.6709 30.3411H26.9517C27.0735 30.3415 27.1913 30.385 27.2841 30.464C27.377 30.543 27.4388 30.6523 27.4587 30.7725C27.8025 33.0945 28.8337 34.265 33.4967 34.265C37.2109 34.265 38.7939 33.4245 38.7939 31.4531C38.7939 30.317 38.3453 29.4731 32.572 28.9076C27.7457 28.4298 24.762 27.3608 24.762 23.5039C24.762 19.9461 27.7612 17.8234 32.7886 17.8234C38.4381 17.8234 41.2345 19.7845 41.5886 23.992C41.594 24.0623 41.5849 24.1329 41.562 24.1995C41.539 24.2661 41.5027 24.3273 41.4552 24.3793C41.4077 24.4313 41.35 24.4731 41.2857 24.5019C41.2215 24.5308 41.152 24.5462 41.0815 24.5472H38.7853C38.6701 24.5456 38.5587 24.5054 38.469 24.4331C38.3793 24.3609 38.3164 24.2606 38.2903 24.1484C37.742 21.7061 36.3996 20.9258 32.7903 20.9258C28.734 20.9258 28.2631 22.3386 28.2631 23.3973C28.2631 24.6795 28.82 25.0542 34.2959 25.7778C39.7151 26.4945 42.2898 27.5086 42.2898 31.3173C42.2898 35.1605 39.0861 37.3605 33.4984 37.3605C25.7726 37.3708 24.1553 33.8284 24.1553 30.8567Z" fill="#83CD29"/>
</svg>
