<svg width="50" height="50" viewBox="0 0 50 50" fill="none" xmlns="http://www.w3.org/2000/svg">
<path d="M36.6441 35.9813C36.9508 33.4293 36.859 33.0547 38.7598 33.4684L39.2422 33.5106C40.7039 33.577 42.616 33.2754 43.7395 32.7535C46.1578 31.6313 47.5914 29.7582 45.2074 30.25C39.7684 31.3723 39.3945 29.5305 39.3945 29.5305C45.1379 21.009 47.5387 10.1914 45.466 7.54337C39.8137 0.321107 30.0297 3.73634 29.866 3.82462L29.8137 3.83439C28.7391 3.61134 27.5363 3.47814 26.1852 3.45626C23.7238 3.41564 21.8562 4.10158 20.4394 5.17579C20.4394 5.17579 2.98515 -2.01522 3.79726 14.2192C3.96992 17.6727 8.74726 40.3512 14.4457 33.5012C16.5285 30.9965 18.541 28.8785 18.541 28.8785C19.5402 29.5422 20.7371 29.8813 21.9918 29.7594L22.0891 29.6766C22.0586 29.9875 22.0719 30.2918 22.1277 30.652C20.6602 32.2922 21.0914 32.5801 18.1566 33.184C15.1871 33.7957 16.9316 34.8852 18.0703 35.1699C19.4512 35.5152 22.6453 36.0043 24.8039 32.9832L24.718 33.3277C25.2937 33.7887 25.2551 36.6391 25.3363 38.6754C25.418 40.7121 25.5543 42.6125 25.9695 43.7332C26.3848 44.8535 26.8746 47.7395 30.7316 46.9129C33.9551 46.2238 36.4195 45.2297 36.6441 35.9813Z" fill="black"/>
<path d="M29.4758 48.9281C27.7699 48.9281 26.659 48.2684 25.9844 47.6313C24.966 46.6703 24.5621 45.4324 24.3207 44.693L24.2164 44.3844C23.7305 43.0727 23.5656 41.184 23.468 38.752C23.4531 38.3867 23.443 38.0106 23.4316 37.6117C23.4234 37.3199 23.4133 36.9539 23.3984 36.5711C22.7918 36.861 22.1434 37.0672 21.4602 37.1836C20.2574 37.3891 18.9645 37.3227 17.6164 36.9856C16.6652 36.7477 15.677 36.2547 15.1137 35.4934C13.4719 36.9313 11.9059 36.7364 11.0527 36.4516C9.54766 35.9496 8.20078 34.5391 6.93476 32.1403C6.03281 30.4313 5.16055 28.2047 4.3418 25.5219C2.91601 20.85 2.01015 15.9293 1.92969 14.3137C1.67656 9.25705 3.03789 5.64064 5.975 3.56603C10.6082 0.293378 17.6281 2.21799 20.1875 3.09182C21.907 2.05549 23.9301 1.55119 26.216 1.58752C27.4438 1.60744 28.6129 1.71525 29.6988 1.909C30.8316 1.55275 33.0691 1.04142 35.6305 1.07346C40.3496 1.12971 44.2602 2.96877 46.9387 6.39182C48.8504 8.834 47.9051 13.9625 47.1719 16.8024C46.1398 20.7969 44.3316 25.0453 42.1105 28.7438C42.7137 28.7481 43.5875 28.6758 44.8297 28.4192C47.2805 27.9133 47.9973 29.2274 48.1918 29.8156C48.9711 32.1758 45.5836 33.9594 44.527 34.45C43.173 35.0785 40.9656 35.4613 39.1578 35.3785L39.0789 35.3735L38.6039 35.3317L38.557 35.7278L38.5117 36.1149C38.3902 40.802 37.7207 43.7703 36.343 45.7317C34.8988 47.7879 32.8918 48.3641 31.1238 48.743C30.5207 48.8719 29.9727 48.9281 29.4758 48.9281ZM25.8859 31.8692C26.9871 32.7504 27.0836 34.4086 27.1699 37.5074C27.1809 37.8942 27.191 38.2602 27.2047 38.602C27.2461 39.6371 27.3434 42.061 27.723 43.0852C27.7766 43.2301 27.8246 43.377 27.8754 43.5328C28.2984 44.8281 28.5105 45.4778 30.3398 45.0867C31.8754 44.7574 32.6648 44.4621 33.2828 43.5824C34.1809 42.3035 34.6832 39.7309 34.7754 35.936L36.6437 35.9813L34.7883 35.7586L34.843 35.2953C35.0207 33.768 35.1488 32.6649 36.1695 31.9352C36.9887 31.35 37.9219 31.4067 38.6652 31.5406C37.8484 30.9235 37.6227 30.1996 37.5625 29.9028L37.4066 29.1352L37.8445 28.4856C40.3668 24.7434 42.4465 20.1442 43.5512 15.8668C44.6863 11.4719 44.3402 9.13791 43.9941 8.6965C39.4125 2.84221 31.4676 5.25939 30.6379 5.53361L30.4977 5.60939L29.7945 5.74025L29.4344 5.66564C28.4414 5.45939 27.3383 5.34533 26.1559 5.32619C24.298 5.29494 22.7992 5.734 21.5703 6.66643L20.7176 7.31291L19.7281 6.90549C17.6141 6.04103 11.4047 4.30314 8.12812 6.62385C6.30937 7.91213 5.48086 10.4363 5.66523 14.1266C5.72617 15.3449 6.55391 19.9571 7.91953 24.4301C9.80664 30.6117 11.5215 32.6653 12.2375 32.9039C12.3625 32.9461 12.6867 32.6942 13.0094 32.3067C15.107 29.7836 17.1027 27.6801 17.1867 27.5918L18.2687 26.4531L19.577 27.3223C20.1043 27.6727 20.6859 27.8715 21.2832 27.909L24.4031 25.2481L23.9512 29.8606C23.941 29.9641 23.9359 30.1051 23.9766 30.3668L24.1125 31.241L23.5227 31.9004L23.4547 31.977L25.1687 32.768L25.8859 31.8692Z" fill="black"/>
<path d="M45.2075 30.25C39.768 31.3722 39.3942 29.5305 39.3942 29.5305C45.1375 21.0086 47.5383 10.1906 45.4664 7.54334C39.8141 0.321467 30.0293 3.7367 29.8661 3.82537L29.8133 3.83475C28.7387 3.6117 27.536 3.47889 26.184 3.45701C23.7227 3.41678 21.8559 4.10233 20.4391 5.17655C20.4391 5.17655 2.98442 -2.01408 3.79614 14.2199C3.96879 17.6738 8.74613 40.3523 14.4446 33.5023C16.5274 30.9976 18.5395 28.8797 18.5395 28.8797C19.5391 29.5433 20.7356 29.8824 21.9899 29.7605L22.0875 29.6777C22.0571 29.9887 22.0711 30.293 22.1266 30.6531C20.6586 32.2933 21.0899 32.5812 18.1551 33.1851C15.1856 33.7969 16.9301 34.8863 18.0692 35.1711C19.4496 35.5164 22.6442 36.0055 24.8024 32.9844L24.7161 33.3289C25.2914 33.7898 25.6954 36.3258 25.6278 38.6246C25.5598 40.9234 25.5145 42.5019 25.968 43.7347C26.4211 44.9676 26.8727 47.741 30.7305 46.9144C33.9539 46.2238 35.6243 44.4336 35.8571 41.4476C36.0219 39.3246 36.395 39.6387 36.4188 37.7406L36.7184 36.8422C37.0637 33.9644 36.7731 33.0363 38.7594 33.468L39.2418 33.5101C40.7036 33.5765 42.6164 33.275 43.7395 32.7531C46.1575 31.6316 47.5914 29.7582 45.2075 30.25Z" fill="#336791"/>
<path d="M29.6707 47.7762C26.455 47.7762 25.4363 45.2297 25.0195 44.1883C24.4093 42.6621 24.2777 36.7395 24.4136 31.8824C24.423 31.5383 24.7082 31.2664 25.0543 31.277C25.3984 31.2863 25.6695 31.5731 25.6597 31.9172C25.5031 37.5192 25.7254 42.5957 26.1769 43.7254C26.8816 45.4867 27.9504 47.0274 30.9718 46.3801C33.8402 45.7649 34.9144 44.6774 35.3929 41.9035C35.7601 39.775 36.4863 33.7195 36.5758 32.5246C36.6015 32.1817 36.8992 31.9235 37.2437 31.9496C37.5867 31.9754 37.8441 32.2746 37.8187 32.6176C37.7254 33.8617 37.0027 39.9055 36.6215 42.1156C36.0566 45.3918 34.5961 46.8778 31.2332 47.5988C30.6617 47.7211 30.1425 47.7758 29.6707 47.7762ZM12.2347 35.3383C11.9281 35.3383 11.6496 35.2817 11.4082 35.2016C9.3195 34.5047 7.33005 31.1031 5.49489 25.0903C4.09802 20.5133 3.21286 15.736 3.13513 14.1832C2.90505 9.58009 4.0902 6.32345 6.65856 4.50431C11.7394 0.904312 20.2867 4.33244 20.648 4.48009C20.9664 4.61017 21.1195 4.97423 20.989 5.29298C20.859 5.61134 20.4949 5.76408 20.1765 5.63439C20.0941 5.6008 11.898 2.3172 7.37653 5.52306C5.18044 7.08009 4.17224 9.97306 4.37966 14.1211C4.44489 15.4293 5.27184 20.0918 6.68669 24.7262C8.32497 30.0942 10.1894 33.4813 11.8023 34.0192C12.0554 34.1035 12.8258 34.3602 13.9269 33.036C15.9992 30.543 17.9027 28.5531 17.9218 28.5336C18.1601 28.2852 18.5547 28.277 18.8031 28.5153C19.0515 28.7535 19.0601 29.1481 18.8218 29.3961C18.8031 29.4156 16.9285 31.3754 14.8855 33.8332C13.9179 34.9969 12.9906 35.3383 12.2347 35.3383ZM39.3554 30.0863C39.2355 30.0863 39.1144 30.052 39.0074 29.9801C38.7222 29.7875 38.6465 29.4004 38.839 29.1149C44.6449 20.4996 46.6828 10.0899 44.9375 7.85939C42.7406 5.05236 39.6386 3.58634 35.7172 3.50158C32.8136 3.43908 30.5058 4.18048 30.1285 4.30978L30.0336 4.34845C29.6543 4.46759 29.3633 4.25978 29.2535 4.01681C29.1234 3.72931 29.23 3.38947 29.5 3.2258C29.5179 3.21525 29.575 3.19103 29.6675 3.15705L29.6593 3.15939L29.6675 3.15666C30.3086 2.92189 32.6515 2.21916 35.5535 2.25236C39.8925 2.29845 43.4769 3.9715 45.9183 7.09142C47.0734 8.56759 47.0761 11.9684 45.9258 16.4223C44.7531 20.9633 42.5465 25.8434 39.8722 29.8117C39.7527 29.9903 39.5558 30.0863 39.3554 30.0863ZM39.6523 34.0746C38.6609 34.0746 37.7722 33.9348 37.2402 33.616C36.6933 33.2883 36.589 32.843 36.5754 32.6067C36.4261 29.9856 37.8722 29.5293 38.6097 29.3211C38.507 29.1656 38.3609 28.9828 38.2097 28.7942C37.7797 28.2567 37.1906 27.5207 36.7367 26.4199C36.6656 26.2481 36.4429 25.8485 36.1851 25.3856C34.7871 22.8785 31.8781 17.6617 33.7468 14.9902C34.6117 13.7539 36.334 13.2672 38.8715 13.5387C38.125 11.2645 34.5703 4.15041 26.1355 4.01212C23.5988 3.96994 21.5183 4.75002 19.955 6.32853C16.455 9.8633 16.5816 16.259 16.5836 16.3231C16.5925 16.6672 16.3211 16.9535 15.9769 16.9625C15.6328 16.9735 15.3468 16.7 15.3375 16.3559C15.3297 16.0719 15.1992 9.36017 19.0695 5.45119C20.8808 3.62189 23.2652 2.71876 26.1562 2.76603C31.5523 2.8547 35.0258 5.59806 36.989 7.88361C39.1293 10.3746 40.1785 13.1223 40.2648 14.0395C40.3293 14.7215 39.8398 14.8578 39.741 14.8781L39.516 14.8832C37.0258 14.4844 35.4281 14.7613 34.7675 15.7051C33.3461 17.7367 36.098 22.6715 37.273 24.7789C37.573 25.3164 37.7894 25.7051 37.8886 25.9449C38.2746 26.8809 38.7781 27.5098 39.1824 28.0153C39.5382 28.4598 39.8465 28.8453 39.9566 29.2977C40.0078 29.3875 40.734 30.4617 45.0429 29.5723C46.123 29.3496 46.7707 29.5399 46.9687 30.1387C47.3582 31.3164 45.173 32.6903 43.9632 33.252C42.8793 33.7559 41.1492 34.0746 39.6523 34.0746ZM37.8179 32.5039C37.9547 32.6418 38.6386 32.8797 40.055 32.8188C41.3144 32.7649 42.6425 32.491 43.4394 32.1211C44.4586 31.6477 45.139 31.1184 45.4914 30.757L45.2961 30.793C42.541 31.3617 40.5922 31.286 39.5039 30.5676C39.4261 30.5164 39.3562 30.4633 39.2929 30.411C39.175 30.4574 39.066 30.4879 38.9883 30.5098C38.3711 30.6828 37.7328 30.8621 37.8179 32.5039ZM20.0203 35.9863C19.3359 35.9863 18.6156 35.893 17.88 35.709C17.1179 35.5184 15.8332 34.9445 15.8527 34.002C15.875 32.9445 17.4129 32.6274 17.9918 32.5082C20.0832 32.0774 20.2195 31.9047 20.873 31.0746C21.0636 30.8328 21.3008 30.5317 21.6242 30.1707C22.1043 29.6332 22.6289 29.361 23.1836 29.361C23.5699 29.361 23.8867 29.4918 24.0961 29.5789C24.7633 29.8555 25.3199 30.5242 25.5488 31.3238C25.7554 32.0453 25.6566 32.7399 25.2715 33.2793C24.007 35.05 22.191 35.9863 20.0203 35.9863ZM17.1992 34.0555C17.3871 34.2008 17.7636 34.3949 18.1828 34.4996C18.8199 34.659 19.4379 34.7399 20.0207 34.7399C21.7965 34.7399 23.2222 34.0047 24.2578 32.5547C24.4738 32.2524 24.409 31.8684 24.3511 31.6664C24.23 31.2434 23.9293 30.8586 23.6195 30.7301C23.4515 30.6606 23.3121 30.6074 23.184 30.6074C23.1152 30.6074 22.9058 30.6074 22.5535 31.0016C22.2558 31.334 22.0414 31.6063 21.8527 31.8461C21.0386 32.8797 20.6656 33.2305 18.2437 33.7293C17.6527 33.8504 17.3496 33.9738 17.1992 34.0555ZM21.9918 31.1805C21.6894 31.1805 21.4238 30.9598 21.3765 30.6516C21.3609 30.5481 21.3508 30.4442 21.3453 30.3395C19.7578 30.3098 18.2261 29.6285 17.0633 28.4153C15.5929 26.8813 14.9238 24.7559 15.2277 22.5844C15.5578 20.2262 15.4343 18.1445 15.3679 17.0262C15.3496 16.7153 15.3363 16.4906 15.3371 16.3352C15.3383 16.1379 15.3422 15.6149 17.0906 14.7285C17.7125 14.4133 18.9593 13.8633 20.3215 13.7223C22.5781 13.4891 24.0656 14.4942 24.5109 16.5527C25.7129 22.1106 24.6062 24.5688 23.798 26.3641C23.6476 26.6985 23.5054 27.0141 23.3918 27.3199L23.2914 27.5895C22.8644 28.7344 22.4953 29.7235 22.6086 30.4621C22.6609 30.8024 22.4273 31.1203 22.0871 31.1727L21.9918 31.1805ZM16.5875 16.5078L16.6117 16.9527C16.6804 18.1145 16.8086 20.2762 16.4617 22.7574C16.2113 24.5485 16.7582 26.2965 17.9629 27.5528C18.9148 28.5457 20.1675 29.0938 21.455 29.0938H21.4816C21.6258 28.4863 21.8652 27.8449 22.123 27.1539L22.2226 26.886C22.3511 26.5406 22.5015 26.2063 22.6609 25.8524C23.4386 24.1242 24.407 21.9731 23.2918 16.8164C23.0711 15.7949 22.5355 15.2039 21.6554 15.009C19.8476 14.6098 17.1535 15.9695 16.5875 16.5078ZM20.3492 16.2434C20.3179 16.4637 20.7527 17.052 21.3199 17.1305C21.8859 17.2098 22.3703 16.7496 22.4011 16.5293C22.432 16.309 21.9976 16.066 21.4304 15.9871C20.8636 15.9082 20.3793 16.0231 20.3492 16.2434ZM21.45 17.3473L21.291 17.3363C20.9394 17.2875 20.584 17.066 20.3406 16.7434C20.255 16.6301 20.1156 16.4106 20.1433 16.2145C20.1828 15.927 20.5336 15.7547 21.0808 15.7547C21.2031 15.7547 21.3304 15.7637 21.4586 15.7817C21.7578 15.8231 22.0355 15.9094 22.2406 16.0238C22.5961 16.2223 22.6222 16.4438 22.6062 16.5582C22.5625 16.8758 22.0574 17.3473 21.45 17.3473ZM20.5558 16.2801C20.5734 16.416 20.9101 16.8645 21.3484 16.925L21.4504 16.932C21.855 16.932 22.1574 16.6137 22.1929 16.5094C22.1554 16.4383 21.8953 16.2617 21.4019 16.193C21.2925 16.1774 21.1847 16.1699 21.0812 16.1699C20.764 16.1699 20.5957 16.2414 20.5558 16.2801ZM37.589 15.7938C37.6199 16.0141 37.1855 16.6024 36.6187 16.6813C36.0523 16.7602 35.5675 16.3004 35.5363 16.0801C35.5066 15.8598 35.941 15.6164 36.5074 15.5379C37.0738 15.4586 37.5578 15.5738 37.589 15.7938ZM36.4879 16.7938C35.9425 16.7938 35.4718 16.3695 35.4332 16.0942C35.3883 15.7637 35.9324 15.5125 36.4925 15.4348C36.616 15.4176 36.7383 15.409 36.8558 15.409C37.3394 15.409 37.6597 15.5508 37.6918 15.7797C37.7125 15.9277 37.5988 16.1563 37.4031 16.3625C37.2738 16.4981 37.0023 16.7328 36.6324 16.784L36.4879 16.7938ZM36.8562 15.6168C36.7484 15.6168 36.6359 15.625 36.5218 15.6406C35.959 15.7192 35.623 15.9449 35.6394 16.066C35.6582 16.1992 36.0175 16.5863 36.4883 16.5863L36.6043 16.5781C36.9117 16.5356 37.1425 16.3348 37.2527 16.2192C37.4258 16.0375 37.4945 15.8664 37.4863 15.8082C37.4754 15.7309 37.2675 15.6168 36.8562 15.6168ZM38.405 28.4461C38.2859 28.4461 38.1656 28.4117 38.059 28.3406C37.773 28.1492 37.6961 27.7621 37.8879 27.4762C39.2152 25.4938 38.9722 23.4723 38.7375 21.5172C38.6371 20.6844 38.534 19.8231 38.5605 18.9965C38.5879 18.1461 38.6961 17.4445 38.8004 16.766C38.9242 15.9621 39.0414 15.2028 38.9929 14.3012C38.9742 13.9574 39.2379 13.6641 39.5816 13.6453C39.9265 13.627 40.2191 13.8903 40.2375 14.234C40.2929 15.2645 40.1605 16.1238 40.0324 16.9555C39.9336 17.5973 39.8312 18.261 39.8066 19.0363C39.7828 19.7684 39.8761 20.5457 39.975 21.3684C40.225 23.4473 40.5082 25.8035 38.9238 28.1695C38.8035 28.3488 38.6062 28.4461 38.405 28.4461Z" fill="white"/>
</svg>
