<svg width="55" height="55" viewBox="0 0 55 55" fill="none" xmlns="http://www.w3.org/2000/svg">
<path d="M38.109 37.8598C34.2418 45.766 27.47 51.0855 18.511 52.8344C17.1373 53.1709 15.7272 53.3355 14.3129 53.3242C9.15668 53.3242 4.43012 51.1758 2.13559 47.6566C-0.945273 42.9688 -1.99371 33.0301 8.1641 25.6781C8.37035 26.7996 8.79145 28.3379 9.07074 29.2488C7.0767 30.7302 5.44451 32.6445 4.29691 34.8477C2.40629 38.5602 2.61684 42.2684 4.85551 45.6973C6.40238 48.009 8.8516 49.4141 12.0012 49.8438C15.9352 50.3417 19.9261 49.5901 23.4094 47.6953C28.8707 44.825 32.5102 41.3961 34.8907 36.7082C34.2175 36.0126 33.8191 35.0967 33.7692 34.1301C33.7332 33.0928 34.1102 32.0835 34.8175 31.3239C35.5248 30.5642 36.5046 30.1162 37.5418 30.0781H37.6879C38.6968 30.0731 39.669 30.456 40.4034 31.1478C41.1378 31.8396 41.5782 32.7872 41.6334 33.7946C41.6886 34.802 41.3544 35.7921 40.7 36.5599C40.0456 37.3278 39.121 37.8147 38.1176 37.9199L38.109 37.8598ZM50.4282 29.1801C55.6747 35.127 55.8165 42.1266 53.7883 46.1871C51.8977 49.8953 46.9133 53.6078 40.2102 53.6078C37.0811 53.544 34.0028 52.8037 31.1868 51.4379C32.1707 50.7375 33.5672 49.616 34.3364 48.9156C36.508 49.8564 38.8449 50.3559 41.2114 50.3852C45.5512 50.3852 48.8383 48.357 50.7977 44.6488C52.0567 42.1996 52.1297 39.3293 50.9395 36.3902C49.479 32.6923 46.8802 29.5547 43.5188 27.4312C39.1088 24.4584 33.9099 22.8736 28.5914 22.8809H27.3325C27.0389 23.559 26.5613 24.1414 25.9538 24.5621C25.3462 24.9829 24.633 25.2251 23.895 25.2613H23.7618C22.7409 25.2488 21.7651 24.8387 21.0417 24.1183C20.3183 23.3979 19.9042 22.4239 19.8875 21.4031C19.8707 20.3822 20.2525 19.3951 20.9519 18.6513C21.6512 17.9075 22.6129 17.4656 23.6329 17.4195H23.7747C24.4854 17.4201 25.1822 17.6164 25.7886 17.9871C26.395 18.3578 26.8876 18.8884 27.2122 19.5207H28.3336C37.2711 19.5207 45.1172 22.9496 50.4282 29.1801ZM14.8715 39.0629C14.7979 38.3494 14.9708 37.6321 15.3614 37.0305C11.4426 30.2414 9.34574 21.6348 12.5641 12.6758C14.8715 5.94257 20.6809 1.39218 26.9801 1.39218C33.7004 1.39218 40.7 7.2746 41.5379 18.6098C40.4895 18.2617 38.9598 17.7504 38.0403 17.5613C37.8125 13.8531 34.6801 4.61484 27.2594 4.75234C24.5996 4.82539 20.6809 6.08437 18.6657 8.67109C16.1729 11.7589 14.7227 15.5573 14.5235 19.5207C14.0511 24.9553 15.3262 30.3987 18.1629 35.0582C18.3195 35.001 18.4865 34.9776 18.6528 34.9894H18.7903C19.8296 34.9706 20.8338 35.3655 21.582 36.0871C22.3302 36.8087 22.7611 37.798 22.7799 38.8373C22.7987 39.8766 22.4039 40.8808 21.6823 41.629C20.9607 42.3772 19.9714 42.8081 18.9321 42.827H18.7903C17.7763 42.8233 16.8029 42.4286 16.0729 41.725C15.3428 41.0213 14.9125 40.0631 14.8715 39.05V39.0629Z" fill="#764ABC"/>
</svg>
