<svg width="55" height="55" viewBox="0 0 55 55" fill="none" xmlns="http://www.w3.org/2000/svg">
<path fill-rule="evenodd" clip-rule="evenodd" d="M0.523804 24.1295C0.523804 24.4316 0.612749 24.631 0.662593 24.8248C0.987436 26.085 1.68568 27.1666 2.51412 28.1531C3.69404 29.5591 5.13908 30.6909 6.61935 31.7552C7.90326 32.6782 9.21337 33.5805 10.5024 34.4966C10.7237 34.6539 10.933 34.8348 11.1732 35.0277C10.9665 35.1394 10.7946 35.2378 10.6159 35.3285C8.91474 36.1913 7.27806 37.1585 5.76943 38.3303C4.86021 39.0367 3.98107 39.7873 3.36017 40.7683C2.36115 42.3461 2.00751 44.0271 2.75216 45.8219C2.96958 46.3461 3.3013 46.799 3.76923 47.1337C3.92091 47.242 4.09107 47.3494 4.26853 47.3915C4.72314 47.4985 5.18634 47.5686 5.64654 47.6532L6.94978 47.6523C8.39095 47.5239 9.70279 47.0302 10.8883 46.212C12.7411 44.9333 13.9893 43.2188 14.526 41.0184C14.9162 39.4191 14.9321 37.8181 14.4723 36.2261C14.4298 36.0783 14.3761 35.9335 14.3202 35.7904C14.2643 35.6473 14.1986 35.5081 14.1213 35.3298L17.0758 33.6308L17.1201 33.6686C17.0663 33.8443 17.0092 34.0196 16.9606 34.1971C16.6096 35.4793 16.3763 36.7838 16.4601 38.1146C16.5494 39.5325 16.9452 40.8598 17.7753 42.0445C18.4465 43.0027 20.0458 43.0384 20.7591 42.0767C21.0122 41.7351 21.2575 41.378 21.4418 40.9969C21.9235 40.0022 22.3695 38.9898 22.8297 37.9844L22.9101 37.8005C22.877 38.2766 22.8383 38.6946 22.8207 39.1132C22.7932 39.7667 22.8315 40.4164 23.0549 41.0382C23.2461 41.5701 23.5714 41.9676 24.1807 42.0376C24.5975 42.0853 24.9296 41.8945 25.236 41.6526C25.7147 41.2749 26.1035 40.8083 26.3923 40.278C27.2091 38.778 28.0479 37.287 28.7882 35.7491C29.5892 34.0858 30.2895 32.3739 31.0333 30.6823L31.1562 30.3823C31.332 31.0729 31.4544 31.7492 31.68 32.3894C31.9421 33.1323 32.2665 33.8577 32.6197 34.5628C32.7869 34.8958 32.7675 35.1119 32.5359 35.3912C31.5666 36.56 30.614 37.7429 29.6605 38.9245C29.4495 39.1854 29.2394 39.4509 29.0636 39.7358C28.9575 39.9089 28.887 40.1199 28.8574 40.3219C28.8002 40.7077 29.0387 41.0798 29.4517 41.1688C29.8289 41.25 30.2307 41.2801 30.6152 41.2517C31.946 41.1537 33.1543 40.6867 34.2225 39.8952C35.6065 38.87 36.0508 37.4709 35.7156 35.8127C35.625 35.3629 35.4647 34.9254 35.3087 34.4919C35.2387 34.2964 35.234 34.1593 35.3616 33.9771C36.468 32.3971 37.4133 30.7209 38.2925 29.0061C38.3273 28.9386 38.3629 28.8711 38.424 28.7989C38.7088 30.2814 39.1377 31.7101 39.9059 33.0064C39.5141 33.3841 39.1261 33.7266 38.775 34.1039C38.002 34.9349 37.3317 35.8372 36.9819 36.9377C36.8315 37.412 36.7159 37.8941 36.783 38.4007C36.887 39.1875 37.5315 39.6988 38.3054 39.5196C39.9614 39.1364 41.3909 38.3561 42.4355 36.9737C43.1385 36.043 43.2025 35.0049 42.9082 33.9174C42.8274 33.6218 42.7316 33.3309 42.6284 32.9918C43.0371 32.8651 43.4354 32.713 43.8475 32.6189C45.9869 32.1307 48.1031 32.2158 50.1647 32.9884C51.3683 33.4396 52.3407 34.1945 52.9173 35.3822C53.6216 36.8341 53.2323 38.2117 51.8637 39.1295C51.7361 39.215 51.59 39.2825 51.4843 39.3895C51.4194 39.4552 51.3803 39.5867 51.3962 39.6773C51.4052 39.7302 51.5449 39.7964 51.6252 39.7955C52.0751 39.7921 52.4399 39.5562 52.7901 39.3138C53.6675 38.7067 54.3078 37.8898 54.4457 36.8143L54.4728 36.7336L54.4397 36.0332C54.4264 35.9928 54.4496 35.9528 54.4466 35.9223C54.2601 34.3561 53.4235 33.1414 52.2066 32.1892C50.7972 31.087 49.1331 30.6333 47.3731 30.5615C45.9388 30.5031 44.529 30.7162 43.1772 31.2073C42.7917 31.347 42.4097 31.5124 42.0222 31.6684C41.9702 31.5743 41.9143 31.4841 41.8683 31.3908C41.4704 30.5761 40.9883 29.7975 40.8818 28.8634C40.8061 28.2 40.7133 27.5374 40.871 26.8813C41.0227 26.25 41.2204 25.6296 41.4064 25.007C41.5022 24.6864 41.4348 24.5068 41.1288 24.3624C41.0223 24.3121 40.9063 24.2683 40.7911 24.2516C40.0392 24.1424 39.2975 24.2047 38.5692 24.4166C38.3114 24.4918 38.124 24.6361 38.0669 24.9214C38.0342 25.0852 37.9676 25.242 37.9212 25.4036C37.7309 26.0752 37.5959 26.7596 37.2883 27.3995C36.5174 29.0043 35.6374 30.5486 34.7368 32.0818C34.6393 32.2472 34.5366 32.4096 34.4137 32.6103C34.0974 31.9486 33.7601 31.3547 33.6579 30.6586C33.5423 29.8714 33.4512 29.0855 33.6471 28.3044C33.7928 27.7217 33.9831 27.1498 34.1584 26.5749C34.2414 26.3016 34.2031 26.1581 33.9556 26.0141C33.8306 25.9415 33.6892 25.8771 33.5483 25.856C32.7684 25.7404 32.0001 25.801 31.2477 26.0442C31.0144 26.1198 30.892 26.2707 30.8206 26.5113C30.6109 27.2211 30.4322 27.9482 30.1379 28.6232C28.9459 31.356 27.7196 34.0746 26.4945 36.7929C26.2389 37.3605 25.9394 37.9083 25.6511 38.4609C25.578 38.601 25.4715 38.7243 25.3804 38.8558C25.3073 38.7694 25.279 38.7101 25.2794 38.6508C25.2815 38.3015 25.2399 37.9418 25.3065 37.6041C25.508 36.5823 25.74 35.5661 25.9845 34.5538C26.1865 33.7176 26.4215 32.8891 26.6454 32.0586C26.7206 31.7805 26.7218 31.5206 26.522 31.2868C26.1865 30.8954 25.4852 30.8095 25.0693 31.1111L24.8854 31.2151L24.921 30.9186C25.0087 30.2831 25.0263 29.6497 24.8518 29.0237C24.6344 28.2434 24.0776 27.7943 23.268 27.8193C22.8908 27.8309 22.4946 27.8953 22.1452 28.0328C20.6761 28.6086 19.5465 29.6282 18.5849 30.855C18.4976 30.9663 18.3825 31.0677 18.2596 31.136C17.0165 31.8252 15.7695 32.5059 14.523 33.1891L13.1356 33.9492C12.7635 33.5943 12.4253 33.226 12.0416 32.9136C10.8698 31.958 9.67915 31.026 8.49923 30.0811C7.45337 29.2437 6.44017 28.3714 5.66501 27.2624C5.08837 26.4374 4.71669 25.5346 4.68103 24.5145C4.63591 23.2147 5.00458 22.0271 5.6663 20.9215C6.51279 19.507 7.66736 18.3717 8.93665 17.3435C10.2794 16.2564 11.7318 15.3334 13.237 14.4908C15.3429 13.3121 17.5089 12.2689 19.8314 11.5801C22.2127 10.8737 24.6288 10.4693 27.121 10.7512C28.1007 10.8621 29.052 11.0864 29.9256 11.5655C30.5946 11.932 31.1433 12.412 31.3986 13.1622C31.6504 13.9004 31.6426 14.6485 31.4682 15.3983C31.1137 16.9168 30.2822 18.1685 29.2359 19.287C27.5198 21.1204 25.4263 22.3687 23.0695 23.1932C21.7095 23.6689 20.3105 23.9675 18.8736 24.0883C17.701 24.1867 16.5529 24.0827 15.4426 23.6749C14.7074 23.4046 14.0671 22.9913 13.5524 22.3914C13.4604 22.284 13.3427 22.1676 13.1712 22.2681C13.0032 22.367 12.9736 22.5268 13.0299 22.6888C13.124 22.9578 13.2108 23.2379 13.3573 23.4786C13.7255 24.0823 14.2626 24.5201 14.8539 24.8957C15.9895 25.618 17.2588 25.8607 18.575 25.917C20.5722 26.0034 22.5208 25.7052 24.4419 25.1694C27.1846 24.4045 29.5694 23.0536 31.4819 20.9223C33.0743 19.1477 34.2117 17.145 34.4554 14.7267C34.5744 13.5463 34.4476 12.39 33.8951 11.3132C33.2956 10.1466 32.3426 9.2791 31.2031 8.68141C29.5436 7.81129 27.7527 7.30469 25.9042 7.30469H24.0522C21.8135 7.30469 19.6492 7.94621 17.5454 8.71148C15.953 9.29113 14.3915 9.97519 12.8756 10.7323C9.57431 12.3819 6.4999 14.3709 3.97462 17.1059C2.7165 18.4684 1.6513 19.9719 1.03857 21.7422C0.85939 22.2604 0.689233 22.816 0.561187 23.3518L0.523804 24.1295ZM12.5233 38.8261C12.3802 40.7421 11.5118 42.2954 10.0925 43.5536C9.29415 44.2608 8.37849 44.7644 7.31201 44.9414C6.92529 45.0055 6.52955 45.0209 6.15443 44.8607C5.61947 44.6321 5.49958 44.1573 5.48927 43.6515C5.47337 42.8454 5.75568 42.1167 6.14283 41.4232C6.64814 40.5191 7.38892 39.8299 8.17998 39.1862C9.42607 38.1717 10.7779 37.3132 12.1623 36.5028L12.2667 36.4598C12.4807 37.2505 12.5826 38.0312 12.5233 38.8261ZM23.3333 30.4992C23.2324 31.1111 23.106 31.7234 22.9273 32.3164C22.3094 34.369 21.5158 36.358 20.6577 38.3204C20.4991 38.6835 20.2684 39.0148 20.0677 39.3589C20.0368 39.4122 19.9908 39.4582 19.9461 39.5025C19.6977 39.7478 19.4623 39.7349 19.3368 39.4139C19.1907 39.041 19.1009 38.6418 19.0236 38.2469C18.9716 37.9818 18.984 37.7034 18.9677 37.4318C18.9845 35.5008 19.5736 33.7459 20.573 32.1123C20.9851 31.4385 21.4337 30.7966 22.119 30.3703C22.3296 30.2393 22.5659 30.134 22.8044 30.067C23.1696 29.9643 23.3939 30.1331 23.3333 30.4992ZM30.7085 39.8956L33.3592 36.8006C33.4697 37.95 31.5159 40.2445 30.7085 39.8956ZM39.1746 37.8129C38.9873 37.9204 38.7832 37.9977 38.5911 38.097C38.4154 38.188 38.3573 38.0961 38.3522 37.9448C38.3488 37.8421 38.3638 37.7347 38.3922 37.635C38.7501 36.3726 39.4088 35.295 40.3889 34.4184L40.4577 34.3832C40.9239 35.6873 40.385 37.1194 39.1746 37.8129Z" fill="#CB6699"/>
</svg>
