<svg width="55" height="55" viewBox="0 0 55 55" fill="none" xmlns="http://www.w3.org/2000/svg">
<path d="M3.4375 27.5V51.5625H27.5H51.5625V27.5V3.4375H27.5H3.4375V27.5Z" fill="#007ACC"/>
<path d="M42.2193 25.5819C43.3718 25.85 44.419 26.4534 45.2289 27.3161C45.6749 27.7828 46.0621 28.3023 46.3821 28.863C46.3976 28.9248 44.3042 30.329 43.0357 31.1162C42.9893 31.1472 42.8071 30.9444 42.6009 30.6419C42.3697 30.2424 42.0409 29.9081 41.6453 29.6703C41.2497 29.4326 40.8003 29.2991 40.339 29.2823C38.8798 29.1826 37.9328 29.9475 37.9482 31.2228C37.9358 31.536 38.007 31.8469 38.1545 32.1234C38.4759 32.7886 39.0706 33.1856 40.9423 33.9951C44.3798 35.4767 45.8614 36.4547 46.786 37.8451C47.3008 38.7233 47.6173 39.7033 47.7135 40.7166C47.8097 41.7299 47.6832 42.7519 47.3429 43.7112C46.8762 44.7646 46.1359 45.6737 45.1989 46.3441C44.2619 47.0145 43.1624 47.4217 42.0148 47.5234C40.7959 47.6633 39.5644 47.6506 38.3487 47.4856C36.4861 47.1798 34.7702 46.286 33.452 44.935C32.9543 44.3742 32.533 43.75 32.199 43.0787C32.3398 42.9741 32.488 42.8799 32.6424 42.7969C32.8556 42.6748 33.6737 42.209 34.4299 41.7656L35.805 40.963L36.0937 41.3875C36.5831 42.0873 37.2064 42.6832 37.9276 43.1406C38.6534 43.5386 39.4755 43.7271 40.3021 43.6852C41.1288 43.6433 41.9276 43.3727 42.6095 42.9034C42.9591 42.5607 43.1774 42.1062 43.2264 41.6191C43.2754 41.132 43.1519 40.6431 42.8776 40.2376C42.5029 39.7031 41.7398 39.2528 39.5707 38.3126C37.8697 37.7368 36.3208 36.7838 35.0401 35.5248C34.4292 34.8288 33.9781 34.0075 33.7184 33.1186C33.5262 32.1059 33.4978 31.0689 33.6342 30.0472C33.8891 28.8716 34.4992 27.8029 35.3818 26.9857C36.2645 26.1685 37.377 25.6424 38.5687 25.4787C39.7838 25.3296 41.0145 25.3643 42.2193 25.5819ZM30.922 27.5911L30.9374 29.5625H24.6743V47.3619H20.2434V29.5625H13.9785V27.6306C13.9615 26.9678 13.9793 26.3046 14.0318 25.6437C14.0542 25.6128 17.8664 25.5973 22.4881 25.6059L30.8979 25.6283L30.922 27.5911Z" fill="white"/>
</svg>
