<svg width="52" height="52" viewBox="0 0 52 52" fill="none" xmlns="http://www.w3.org/2000/svg">
<circle cx="26" cy="26" r="26" fill="white"/>
<path fill-rule="evenodd" clip-rule="evenodd" d="M26.4562 28.273L18.6542 50.9405C20.9844 51.6262 23.4479 52 25.9996 52C29.027 52 31.9308 51.4767 34.6336 50.5261C34.5654 50.414 34.5004 50.297 34.4484 50.1686L26.4562 28.273ZM48.815 13.5257C48.9271 14.3544 48.9905 15.2417 48.9905 16.1988C48.9905 18.8362 48.4965 21.8018 47.0129 25.5117L39.0711 48.4717C46.8016 43.9656 52 35.5899 52 25.9992C52 21.4784 50.8446 17.2291 48.815 13.5257ZM43.5516 24.6874C43.5516 21.4732 42.3963 19.2485 41.4082 17.5179C40.0904 15.3745 38.8537 13.561 38.8537 11.4193C38.8537 9.02891 40.6656 6.80428 43.2201 6.80428C43.3355 6.80428 43.4444 6.81891 43.5565 6.82541C38.9318 2.587 32.7677 0 25.9996 0C16.9154 0 8.92491 4.6605 4.27578 11.7179C4.88678 11.7374 5.46203 11.7487 5.94953 11.7487C8.66816 11.7487 12.8789 11.4189 12.8789 11.4189C14.2797 11.336 14.4454 13.3965 13.0447 13.5606C13.0447 13.5606 11.6358 13.7264 10.0693 13.8092L19.537 41.9709L25.2277 24.9064L21.1778 13.8092C19.7771 13.7264 18.4494 13.5606 18.4494 13.5606C17.0487 13.4778 17.2128 11.336 18.6152 11.4189C18.6152 11.4189 22.9084 11.7487 25.4633 11.7487C28.182 11.7487 32.3927 11.4189 32.3927 11.4189C33.7951 11.336 33.9592 13.3965 32.5585 13.5606C32.5585 13.5606 31.148 13.7264 29.5831 13.8092L38.9793 41.7564L41.5744 33.0919C42.6952 29.4942 43.5516 26.912 43.5516 24.6874ZM0 25.9988C0 36.2899 5.98 45.1839 14.653 49.3976L2.25062 15.418C0.80925 18.6505 0 22.2288 0 25.9988Z" fill="#00759D"/>
</svg>
