<svg width="40" height="40" viewBox="0 0 40 40" fill="none" xmlns="http://www.w3.org/2000/svg">
<path d="M20.2031 39.625C9.39838 39.6641 0.507755 30.6719 0.77338 19.6641C1.02338 9.20312 9.69525 0.554683 20.4765 0.679683C31.1562 0.804683 39.9687 9.69531 39.6953 20.6641C39.4374 31.0937 30.8359 39.6875 20.2031 39.625ZM17.9687 30.2891C17.0156 29.9844 16.0468 29.7578 15.1562 29.3594C13.3437 28.5469 12.1953 27.1406 11.8281 25.1641C11.5937 23.8828 11.6874 22.5937 11.8437 21.3125C11.9843 20.1797 12.3124 19.125 13.1718 18.3047C13.2343 18.2422 13.2421 18.0625 13.2031 17.9687C12.789 16.8359 12.8359 15.7031 13.1718 14.5547C13.2734 14.2109 13.4374 14.1719 13.7343 14.2656C14.5156 14.5078 15.1484 14.9766 15.6874 15.5703C15.9765 15.8828 16.2343 16.2266 16.5078 16.5547C18.1328 15.5 22.7812 15.5 24.4843 16.5391C24.8124 16.1562 25.1249 15.7578 25.4765 15.3906C25.9999 14.8516 26.6093 14.4375 27.3515 14.2344C27.5937 14.1641 27.7265 14.2187 27.8124 14.4766C28.1953 15.6094 28.2656 16.7422 27.8124 17.875C27.7265 18.1016 27.7343 18.25 27.914 18.4219C28.4531 18.9375 28.7812 19.5859 28.9531 20.3125C29.2812 21.6641 29.3515 23.0469 29.2578 24.4219C29.1562 25.8984 28.6015 27.1953 27.5156 28.2344C26.6015 29.1016 25.5078 29.6172 24.3046 29.9219C23.8671 30.0312 23.4296 30.1094 22.9609 30.2031C23.5624 31.125 23.7109 32.125 23.6874 33.1719C23.664 34.2891 23.6796 35.4141 23.6796 36.5312C23.6796 36.6641 23.6874 36.8047 23.6953 36.9453C30.8281 35.6484 38.0312 28.5469 37.2421 18.7109C36.4999 9.32812 28.1953 2.125 18.5859 3.04687C9.60931 3.90625 2.40619 11.9141 3.21869 21.6172C3.99213 30.7969 11.4296 36.2969 17.2499 37.0156C17.2499 36.3516 17.2499 35.6875 17.2499 35.0156C16.9296 35.0625 16.6406 35.1016 16.3593 35.1328C14.2656 35.3672 12.6015 34.4297 11.6718 32.5625C11.164 31.5391 10.6249 30.5156 9.62494 29.8594C9.51557 29.7891 9.45307 29.6562 9.35932 29.5391C9.44525 29.4766 9.48432 29.4453 9.53119 29.4219C9.59369 29.3984 9.65619 29.3906 9.71869 29.3828C10.4218 29.3359 11.0859 29.4609 11.6093 29.9531C11.9531 30.2734 12.2656 30.6562 12.5234 31.0547C13.5078 32.5938 15.2031 33.2422 16.9296 32.7266C17.164 32.6562 17.2968 32.5547 17.3203 32.2812C17.3671 31.5469 17.5703 30.8516 17.9687 30.2891Z" fill="#23BE53"/>
</svg>
