<svg width="40" height="40" viewBox="0 0 40 40" fill="none" xmlns="http://www.w3.org/2000/svg">
<path d="M20.2422 0.687504C31.0547 0.632816 39.9531 9.62501 39.6953 20.6172C39.4609 31.0938 30.7812 39.7656 19.9687 39.6328C9.29684 39.5 0.492152 30.6094 0.773402 19.6328C1.03903 9.20313 9.64059 0.640629 20.2422 0.687504ZM3.14059 20.1875C3.23434 29.9766 11.1718 37.5156 20.5468 37.3438C29.6328 37.1797 37.3203 29.7656 37.3125 20.1484C37.3125 10.3516 29.3047 2.78907 19.9062 2.96875C10.8125 3.14844 3.19528 10.5703 3.14059 20.1875Z" fill="#23BE53"/>
<path d="M31.4063 11.7656C31.4063 17.3203 31.4063 22.8516 31.4063 28.4062C23.9766 28.4062 16.5469 28.4062 9.09375 28.4062C9.09375 22.875 9.09375 17.3359 9.09375 11.7656C16.5078 11.7656 23.9375 11.7656 31.4063 11.7656ZM20.2969 21.9297C19.7734 21.4922 19.2734 21.0938 18.8047 20.6641C18.5859 20.4609 18.4453 20.4766 18.2188 20.6562C16.3828 22.1484 14.5313 23.625 12.6953 25.1172C12.5938 25.1953 12.5313 25.375 12.5234 25.5078C12.5078 26.2734 12.5313 27.0469 12.5078 27.8125C12.4922 28.1719 12.6016 28.2734 12.9609 28.2656C17.8984 28.25 22.8281 28.2578 27.7656 28.2578C27.8984 28.2578 28.0391 28.2578 28.1953 28.2578C28.1953 27.1953 28.2031 26.1875 28.1875 25.1875C28.1875 25.0937 28.1172 24.9609 28.0313 24.9062C25.9922 23.4531 23.9375 22 21.8828 20.5469C21.3594 21.0078 20.8438 21.4531 20.2969 21.9297ZM20.2578 18.6641C22.5703 16.4219 24.8438 14.2109 27.1953 11.9297C22.5703 11.9297 18.0859 11.9297 13.6016 11.9297C15.8047 14.1562 17.9844 16.3672 20.2578 18.6641ZM28.1719 24.3984C28.1719 21.2734 28.1719 18.2109 28.1719 15.0937C26.1719 16.8281 24.2109 18.5234 22.2344 20.2422C24.2422 21.6484 26.1875 23.0078 28.1719 24.3984ZM18.1641 20.1172C16.2969 18.5312 14.4609 16.9687 12.5625 15.3516C12.5625 18.4687 12.5625 21.4922 12.5625 24.5937C14.4531 23.0859 16.2969 21.6094 18.1641 20.1172Z" fill="#23BE53"/>
</svg>
