<svg width="40" height="40" viewBox="0 0 40 40" fill="none" xmlns="http://www.w3.org/2000/svg">
<path d="M20.2344 39.625C9.40627 39.6797 0.523462 30.6797 0.773462 19.6953C1.00784 9.22655 9.68752 0.554679 20.4922 0.679679C31.1641 0.804679 39.9766 9.6953 39.6953 20.6797C39.4297 31.1016 30.836 39.6719 20.2344 39.625ZM3.14065 20.1719C3.22659 29.9609 11.1406 37.4844 20.5 37.3437C29.5781 37.2031 37.3125 29.8125 37.3203 20.1562C37.3203 10.375 29.3438 2.81249 19.961 2.96874C10.8672 3.11718 3.20315 10.5234 3.14065 20.1719Z" fill="#23BE53"/>
<path d="M25.5156 29.3437C25.5156 29.1719 25.5156 29.0234 25.5156 28.8672C25.5156 26.7812 25.5234 24.7031 25.5078 22.6172C25.5078 22.2578 25.4766 21.8828 25.3906 21.5391C25.1094 20.3828 24.1719 19.8047 22.8203 19.9141C21.8203 19.9922 20.9219 20.8828 20.8516 21.9141C20.8047 22.5391 20.8203 23.1641 20.8125 23.7891C20.8047 25.4844 20.8125 27.1719 20.8125 28.8672C20.8125 29.0234 20.8125 29.1719 20.8125 29.3516C19.5469 29.3516 18.3125 29.3516 17.0547 29.3516C17.0547 25.2891 17.0547 21.2187 17.0547 17.1328C18.2812 17.1328 19.5078 17.1328 20.7812 17.1328C20.7812 17.6094 20.7812 18.0937 20.7812 18.6797C20.9141 18.5234 20.9922 18.4453 21.0469 18.3516C22.7344 15.8203 27.3125 16.0937 28.6719 19.0781C29.0469 19.9062 29.2734 20.7734 29.2812 21.6797C29.3047 24.1875 29.2969 26.7031 29.2969 29.2187C29.2969 29.2578 29.2891 29.2969 29.2734 29.3594C28.0391 29.3437 26.7969 29.3437 25.5156 29.3437Z" fill="#23BE53"/>
<path d="M14.6484 29.3594C13.3906 29.3594 12.1719 29.3594 10.9219 29.3594C10.9219 25.3047 10.9219 21.2656 10.9219 17.2031C12.1641 17.2031 13.3906 17.2031 14.6484 17.2031C14.6484 21.2422 14.6484 25.2812 14.6484 29.3594Z" fill="#23BE53"/>
<path d="M12.6719 14.7656C11.5547 14.7578 10.7735 13.9453 10.7813 12.8203C10.7891 11.6953 11.6016 10.9219 12.7657 10.9297C13.8751 10.9375 14.6797 11.7578 14.6641 12.875C14.6641 13.9844 13.8282 14.7734 12.6719 14.7656Z" fill="#23BE53"/>
</svg>
